<svg xmlns:xlink="http://www.w3.org/1999/xlink" xmlns="http://www.w3.org/2000/svg" width="512" height="512" style="overflow: visible;" viewBox="0 0 512 512"><rect data-uid="o_f280f8d24_22" data-fl-background="" x="0" y="0" width="512" height="512" fill="#302F4E"></rect><defs transform="matrix(0.9810912368551242, 0, 0, 0.9810912368551242, 4.840647149269223, 21.81261718446551)" data-uid="o_f280f8d24_23"><linearGradient id="o_f280f8d24_3" x1="32" y1="37.33" x2="32" y2="-24.68" gradientUnits="userSpaceOnUse" data-uid="o_f280f8d24_24"><stop offset="0" stop-color="rgb(250, 217, 148)" data-uid="o_f280f8d24_25"></stop><stop offset="0.35" stop-color="rgb(238, 137, 104)" data-uid="o_f280f8d24_26"></stop><stop offset="0.66" stop-color="rgb(198, 70, 79)" data-uid="o_f280f8d24_27"></stop><stop offset="1" stop-color="rgb(48, 47, 78)" data-uid="o_f280f8d24_28"></stop></linearGradient><linearGradient id="o_f280f8d24_4" x1="31.76" y1="32.75" x2="31.76" y2="1.19" gradientUnits="userSpaceOnUse" data-uid="o_f280f8d24_29"><stop offset="0" stop-color="rgb(250, 217, 148)" data-uid="o_f280f8d24_30"></stop><stop offset="0.31" stop-color="rgb(238, 137, 104)" data-uid="o_f280f8d24_31"></stop><stop offset="0.59" stop-color="rgb(198, 70, 79)" data-uid="o_f280f8d24_32"></stop><stop offset="0.7" stop-color="rgb(48, 47, 78)" data-uid="o_f280f8d24_33"></stop><stop offset="0.73" stop-color="rgb(48, 47, 78)" data-uid="o_f280f8d24_34"></stop></linearGradient><linearGradient id="o_f280f8d24_5" x1="31.25" y1="30.5" x2="31.25" y2="-2.03" gradientUnits="userSpaceOnUse" data-uid="o_f280f8d24_35"><stop offset="0" stop-color="rgb(250, 217, 148)" data-uid="o_f280f8d24_36"></stop><stop offset="0.28" stop-color="rgb(238, 137, 104)" data-uid="o_f280f8d24_37"></stop><stop offset="0.51" stop-color="rgb(198, 70, 79)" data-uid="o_f280f8d24_38"></stop><stop offset="0.85" stop-color="rgb(48, 47, 78)" data-uid="o_f280f8d24_39"></stop></linearGradient><linearGradient id="o_f280f8d24_6" x1="31.68" y1="24" x2="31.68" y2="-5.44" gradientUnits="userSpaceOnUse" data-uid="o_f280f8d24_40"><stop offset="0" stop-color="rgb(250, 217, 148)" data-uid="o_f280f8d24_41"></stop><stop offset="0.2" stop-color="rgb(238, 137, 104)" data-uid="o_f280f8d24_42"></stop><stop offset="0.39" stop-color="rgb(198, 70, 79)" data-uid="o_f280f8d24_43"></stop><stop offset="0.7" stop-color="rgb(48, 47, 78)" data-uid="o_f280f8d24_44"></stop></linearGradient><linearGradient id="o_f280f8d24_7" x1="32" y1="30.33" x2="32" y2="7.06" gradientUnits="userSpaceOnUse" data-uid="o_f280f8d24_45"><stop offset="0" stop-color="rgb(250, 217, 148)" data-uid="o_f280f8d24_46"></stop><stop offset="0.28" stop-color="rgb(238, 137, 104)" data-uid="o_f280f8d24_47"></stop><stop offset="0.58" stop-color="rgb(198, 70, 79)" data-uid="o_f280f8d24_48"></stop><stop offset="1" stop-color="rgb(48, 47, 78)" data-uid="o_f280f8d24_49"></stop></linearGradient><linearGradient id="o_f280f8d24_8" x1="32.03" y1="31.33" x2="32.03" y2="-1.72" gradientUnits="userSpaceOnUse" data-uid="o_f280f8d24_50"><stop offset="0" stop-color="rgb(250, 217, 148)" data-uid="o_f280f8d24_51"></stop><stop offset="0.16" stop-color="rgb(238, 137, 104)" data-uid="o_f280f8d24_52"></stop><stop offset="0.42" stop-color="rgb(198, 70, 79)" data-uid="o_f280f8d24_53"></stop><stop offset="0.9" stop-color="rgb(48, 47, 78)" data-uid="o_f280f8d24_54"></stop></linearGradient><linearGradient id="o_f280f8d24_9" x1="32" y1="92.58" x2="32" y2="27.31" gradientUnits="userSpaceOnUse" data-uid="o_f280f8d24_55"><stop offset="0" stop-color="rgb(250, 217, 148)" data-uid="o_f280f8d24_56"></stop><stop offset="0.35" stop-color="rgb(238, 137, 104)" data-uid="o_f280f8d24_57"></stop><stop offset="0.62" stop-color="rgb(198, 70, 79)" data-uid="o_f280f8d24_58"></stop><stop offset="0.96" stop-color="rgb(48, 47, 78)" data-uid="o_f280f8d24_59"></stop></linearGradient><linearGradient id="o_f280f8d24_10" x1="32" y1="44.3" x2="32" y2="19.71" gradientUnits="userSpaceOnUse" data-uid="o_f280f8d24_60"><stop offset="0.16" stop-color="rgb(250, 217, 148)" data-uid="o_f280f8d24_61"></stop><stop offset="0.34" stop-color="rgb(238, 137, 104)" data-uid="o_f280f8d24_62"></stop><stop offset="0.66" stop-color="rgb(198, 70, 79)" data-uid="o_f280f8d24_63"></stop><stop offset="1" stop-color="rgb(48, 47, 78)" data-uid="o_f280f8d24_64"></stop></linearGradient><linearGradient id="o_f280f8d24_11" x1="32" y1="66.83" x2="32" y2="41.59" gradientUnits="userSpaceOnUse" data-uid="o_f280f8d24_65"><stop offset="0" stop-color="rgb(250, 217, 148)" data-uid="o_f280f8d24_66"></stop><stop offset="0.13" stop-color="rgb(238, 137, 104)" data-uid="o_f280f8d24_67"></stop><stop offset="0.41" stop-color="rgb(198, 70, 79)" data-uid="o_f280f8d24_68"></stop><stop offset="1" stop-color="rgb(48, 47, 78)" data-uid="o_f280f8d24_69"></stop></linearGradient><linearGradient id="o_f280f8d24_12" x1="32" y1="35.33" x2="32" y2="-14.79" gradientUnits="userSpaceOnUse" data-uid="o_f280f8d24_70"><stop offset="0.16" stop-color="rgb(250, 217, 148)" data-uid="o_f280f8d24_71"></stop><stop offset="0.4" stop-color="rgb(238, 137, 104)" data-uid="o_f280f8d24_72"></stop><stop offset="0.66" stop-color="rgb(198, 70, 79)" data-uid="o_f280f8d24_73"></stop><stop offset="1" stop-color="rgb(48, 47, 78)" data-uid="o_f280f8d24_74"></stop></linearGradient><linearGradient id="o_f280f8d24_13" x1="32" y1="28.21" x2="32" y2="-2.08" href="#linear-gradient-11" data-uid="o_f280f8d24_75"></linearGradient><linearGradient id="o_f280f8d24_14" x1="24.22" y1="29.39" x2="23.63" y2="39.96" gradientUnits="userSpaceOnUse" data-uid="o_f280f8d24_76"><stop offset="0" stop-color="rgb(250, 217, 148)" data-uid="o_f280f8d24_77"></stop><stop offset="0.33" stop-color="rgb(238, 137, 104)" data-uid="o_f280f8d24_78"></stop><stop offset="0.67" stop-color="rgb(198, 70, 79)" data-uid="o_f280f8d24_79"></stop><stop offset="1" stop-color="rgb(48, 47, 78)" data-uid="o_f280f8d24_80"></stop></linearGradient><linearGradient id="o_f280f8d24_15" x1="41.27" y1="26.92" x2="40.69" y2="37.5" href="#linear-gradient-13" data-uid="o_f280f8d24_81"></linearGradient><linearGradient id="o_f280f8d24_16" x1="16.16" y1="26.71" x2="15.48" y2="38.97" href="#linear-gradient-13" data-uid="o_f280f8d24_82"></linearGradient><linearGradient id="o_f280f8d24_17" x1="50.29" y1="26.26" x2="49.62" y2="38.52" href="#linear-gradient-13" data-uid="o_f280f8d24_83"></linearGradient><linearGradient id="o_f280f8d24_18" x1="21.57" y1="21.7" x2="21.23" y2="27.83" href="#linear-gradient-13" data-uid="o_f280f8d24_84"></linearGradient><linearGradient id="o_f280f8d24_19" x1="43.33" y1="20.19" x2="43" y2="26.32" href="#linear-gradient-13" data-uid="o_f280f8d24_85"></linearGradient><linearGradient id="o_f280f8d24_20" x1="45.85" y1="27.79" x2="45.51" y2="33.92" href="#linear-gradient-13" data-uid="o_f280f8d24_86"></linearGradient><linearGradient id="o_f280f8d24_3" x1="32" y1="37.33" x2="32" y2="-24.68" gradientUnits="userSpaceOnUse" data-uid="o_f280f8d24_24"><stop offset="0" stop-color="rgb(250, 217, 148)" data-uid="o_f280f8d24_25"></stop><stop offset="0.35" stop-color="rgb(238, 137, 104)" data-uid="o_f280f8d24_26"></stop><stop offset="0.66" stop-color="rgb(198, 70, 79)" data-uid="o_f280f8d24_27"></stop><stop offset="1" stop-color="rgb(48, 47, 78)" data-uid="o_f280f8d24_28"></stop></linearGradient><linearGradient id="o_f280f8d24_4" x1="31.76" y1="32.75" x2="31.76" y2="1.19" gradientUnits="userSpaceOnUse" data-uid="o_f280f8d24_29"><stop offset="0" stop-color="rgb(250, 217, 148)" data-uid="o_f280f8d24_30"></stop><stop offset="0.31" stop-color="rgb(238, 137, 104)" data-uid="o_f280f8d24_31"></stop><stop offset="0.59" stop-color="rgb(198, 70, 79)" data-uid="o_f280f8d24_32"></stop><stop offset="0.7" stop-color="rgb(48, 47, 78)" data-uid="o_f280f8d24_33"></stop><stop offset="0.73" stop-color="rgb(48, 47, 78)" data-uid="o_f280f8d24_34"></stop></linearGradient><linearGradient id="o_f280f8d24_5" x1="31.25" y1="30.5" x2="31.25" y2="-2.03" gradientUnits="userSpaceOnUse" data-uid="o_f280f8d24_35"><stop offset="0" stop-color="rgb(250, 217, 148)" data-uid="o_f280f8d24_36"></stop><stop offset="0.28" stop-color="rgb(238, 137, 104)" data-uid="o_f280f8d24_37"></stop><stop offset="0.51" stop-color="rgb(198, 70, 79)" data-uid="o_f280f8d24_38"></stop><stop offset="0.85" stop-color="rgb(48, 47, 78)" data-uid="o_f280f8d24_39"></stop></linearGradient><linearGradient id="o_f280f8d24_6" x1="31.68" y1="24" x2="31.68" y2="-5.44" gradientUnits="userSpaceOnUse" data-uid="o_f280f8d24_40"><stop offset="0" stop-color="rgb(250, 217, 148)" data-uid="o_f280f8d24_41"></stop><stop offset="0.2" stop-color="rgb(238, 137, 104)" data-uid="o_f280f8d24_42"></stop><stop offset="0.39" stop-color="rgb(198, 70, 79)" data-uid="o_f280f8d24_43"></stop><stop offset="0.7" stop-color="rgb(48, 47, 78)" data-uid="o_f280f8d24_44"></stop></linearGradient><linearGradient id="o_f280f8d24_7" x1="32" y1="30.33" x2="32" y2="7.06" gradientUnits="userSpaceOnUse" data-uid="o_f280f8d24_45"><stop offset="0" stop-color="rgb(250, 217, 148)" data-uid="o_f280f8d24_46"></stop><stop offset="0.28" stop-color="rgb(238, 137, 104)" data-uid="o_f280f8d24_47"></stop><stop offset="0.58" stop-color="rgb(198, 70, 79)" data-uid="o_f280f8d24_48"></stop><stop offset="1" stop-color="rgb(48, 47, 78)" data-uid="o_f280f8d24_49"></stop></linearGradient><linearGradient id="o_f280f8d24_8" x1="32.03" y1="31.33" x2="32.03" y2="-1.72" gradientUnits="userSpaceOnUse" data-uid="o_f280f8d24_50"><stop offset="0" stop-color="rgb(250, 217, 148)" data-uid="o_f280f8d24_51"></stop><stop offset="0.16" stop-color="rgb(238, 137, 104)" data-uid="o_f280f8d24_52"></stop><stop offset="0.42" stop-color="rgb(198, 70, 79)" data-uid="o_f280f8d24_53"></stop><stop offset="0.9" stop-color="rgb(48, 47, 78)" data-uid="o_f280f8d24_54"></stop></linearGradient><linearGradient id="o_f280f8d24_9" x1="32" y1="92.58" x2="32" y2="27.31" gradientUnits="userSpaceOnUse" data-uid="o_f280f8d24_55"><stop offset="0" stop-color="rgb(250, 217, 148)" data-uid="o_f280f8d24_56"></stop><stop offset="0.35" stop-color="rgb(238, 137, 104)" data-uid="o_f280f8d24_57"></stop><stop offset="0.62" stop-color="rgb(198, 70, 79)" data-uid="o_f280f8d24_58"></stop><stop offset="0.96" stop-color="rgb(48, 47, 78)" data-uid="o_f280f8d24_59"></stop></linearGradient><linearGradient id="o_f280f8d24_10" x1="32" y1="44.3" x2="32" y2="19.71" gradientUnits="userSpaceOnUse" data-uid="o_f280f8d24_60"><stop offset="0.16" stop-color="rgb(250, 217, 148)" data-uid="o_f280f8d24_61"></stop><stop offset="0.34" stop-color="rgb(238, 137, 104)" data-uid="o_f280f8d24_62"></stop><stop offset="0.66" stop-color="rgb(198, 70, 79)" data-uid="o_f280f8d24_63"></stop><stop offset="1" stop-color="rgb(48, 47, 78)" data-uid="o_f280f8d24_64"></stop></linearGradient><linearGradient id="o_f280f8d24_11" x1="32" y1="66.83" x2="32" y2="41.59" gradientUnits="userSpaceOnUse" data-uid="o_f280f8d24_65"><stop offset="0" stop-color="rgb(250, 217, 148)" data-uid="o_f280f8d24_66"></stop><stop offset="0.13" stop-color="rgb(238, 137, 104)" data-uid="o_f280f8d24_67"></stop><stop offset="0.41" stop-color="rgb(198, 70, 79)" data-uid="o_f280f8d24_68"></stop><stop offset="1" stop-color="rgb(48, 47, 78)" data-uid="o_f280f8d24_69"></stop></linearGradient><linearGradient id="o_f280f8d24_12" x1="32" y1="35.33" x2="32" y2="-14.79" gradientUnits="userSpaceOnUse" data-uid="o_f280f8d24_70"><stop offset="0.16" stop-color="rgb(250, 217, 148)" data-uid="o_f280f8d24_71"></stop><stop offset="0.4" stop-color="rgb(238, 137, 104)" data-uid="o_f280f8d24_72"></stop><stop offset="0.66" stop-color="rgb(198, 70, 79)" data-uid="o_f280f8d24_73"></stop><stop offset="1" stop-color="rgb(48, 47, 78)" data-uid="o_f280f8d24_74"></stop></linearGradient><linearGradient id="o_f280f8d24_13" x1="32" y1="28.21" x2="32" y2="-2.08" href="#linear-gradient-11" data-uid="o_f280f8d24_75"></linearGradient><linearGradient id="o_f280f8d24_14" x1="24.22" y1="29.39" x2="23.63" y2="39.96" gradientUnits="userSpaceOnUse" data-uid="o_f280f8d24_76"><stop offset="0" stop-color="rgb(250, 217, 148)" data-uid="o_f280f8d24_77"></stop><stop offset="0.33" stop-color="rgb(238, 137, 104)" data-uid="o_f280f8d24_78"></stop><stop offset="0.67" stop-color="rgb(198, 70, 79)" data-uid="o_f280f8d24_79"></stop><stop offset="1" stop-color="rgb(48, 47, 78)" data-uid="o_f280f8d24_80"></stop></linearGradient><linearGradient id="o_f280f8d24_15" x1="41.27" y1="26.92" x2="40.69" y2="37.5" href="#linear-gradient-13" data-uid="o_f280f8d24_81"></linearGradient><linearGradient id="o_f280f8d24_16" x1="16.16" y1="26.71" x2="15.48" y2="38.97" href="#linear-gradient-13" data-uid="o_f280f8d24_82"></linearGradient><linearGradient id="o_f280f8d24_17" x1="50.29" y1="26.26" x2="49.62" y2="38.52" href="#linear-gradient-13" data-uid="o_f280f8d24_83"></linearGradient><linearGradient id="o_f280f8d24_18" x1="21.57" y1="21.7" x2="21.23" y2="27.83" href="#linear-gradient-13" data-uid="o_f280f8d24_84"></linearGradient><linearGradient id="o_f280f8d24_19" x1="43.33" y1="20.19" x2="43" y2="26.32" href="#linear-gradient-13" data-uid="o_f280f8d24_85"></linearGradient><linearGradient id="o_f280f8d24_20" x1="45.85" y1="27.79" x2="45.51" y2="33.92" href="#linear-gradient-13" data-uid="o_f280f8d24_86"></linearGradient><linearGradient id="o_f280f8d24_3" x1="32" y1="37.33" x2="32" y2="-24.68" gradientUnits="userSpaceOnUse" data-uid="o_f280f8d24_24"><stop offset="0" stop-color="rgb(250, 217, 148)" data-uid="o_f280f8d24_25"></stop><stop offset="0.35" stop-color="rgb(238, 137, 104)" data-uid="o_f280f8d24_26"></stop><stop offset="0.66" stop-color="rgb(198, 70, 79)" data-uid="o_f280f8d24_27"></stop><stop offset="1" stop-color="rgb(48, 47, 78)" data-uid="o_f280f8d24_28"></stop></linearGradient><linearGradient id="o_f280f8d24_4" x1="31.76" y1="32.75" x2="31.76" y2="1.19" gradientUnits="userSpaceOnUse" data-uid="o_f280f8d24_29"><stop offset="0" stop-color="rgb(250, 217, 148)" data-uid="o_f280f8d24_30"></stop><stop offset="0.31" stop-color="rgb(238, 137, 104)" data-uid="o_f280f8d24_31"></stop><stop offset="0.59" stop-color="rgb(198, 70, 79)" data-uid="o_f280f8d24_32"></stop><stop offset="0.7" stop-color="rgb(48, 47, 78)" data-uid="o_f280f8d24_33"></stop><stop offset="0.73" stop-color="rgb(48, 47, 78)" data-uid="o_f280f8d24_34"></stop></linearGradient><linearGradient id="o_f280f8d24_5" x1="31.25" y1="30.5" x2="31.25" y2="-2.03" gradientUnits="userSpaceOnUse" data-uid="o_f280f8d24_35"><stop offset="0" stop-color="rgb(250, 217, 148)" data-uid="o_f280f8d24_36"></stop><stop offset="0.28" stop-color="rgb(238, 137, 104)" data-uid="o_f280f8d24_37"></stop><stop offset="0.51" stop-color="rgb(198, 70, 79)" data-uid="o_f280f8d24_38"></stop><stop offset="0.85" stop-color="rgb(48, 47, 78)" data-uid="o_f280f8d24_39"></stop></linearGradient><linearGradient id="o_f280f8d24_6" x1="31.68" y1="24" x2="31.68" y2="-5.44" gradientUnits="userSpaceOnUse" data-uid="o_f280f8d24_40"><stop offset="0" stop-color="rgb(250, 217, 148)" data-uid="o_f280f8d24_41"></stop><stop offset="0.2" stop-color="rgb(238, 137, 104)" data-uid="o_f280f8d24_42"></stop><stop offset="0.39" stop-color="rgb(198, 70, 79)" data-uid="o_f280f8d24_43"></stop><stop offset="0.7" stop-color="rgb(48, 47, 78)" data-uid="o_f280f8d24_44"></stop></linearGradient><linearGradient id="o_f280f8d24_7" x1="32" y1="30.33" x2="32" y2="7.06" gradientUnits="userSpaceOnUse" data-uid="o_f280f8d24_45"><stop offset="0" stop-color="rgb(250, 217, 148)" data-uid="o_f280f8d24_46"></stop><stop offset="0.28" stop-color="rgb(238, 137, 104)" data-uid="o_f280f8d24_47"></stop><stop offset="0.58" stop-color="rgb(198, 70, 79)" data-uid="o_f280f8d24_48"></stop><stop offset="1" stop-color="rgb(48, 47, 78)" data-uid="o_f280f8d24_49"></stop></linearGradient><linearGradient id="o_f280f8d24_8" x1="32.03" y1="31.33" x2="32.03" y2="-1.72" gradientUnits="userSpaceOnUse" data-uid="o_f280f8d24_50"><stop offset="0" stop-color="rgb(250, 217, 148)" data-uid="o_f280f8d24_51"></stop><stop offset="0.16" stop-color="rgb(238, 137, 104)" data-uid="o_f280f8d24_52"></stop><stop offset="0.42" stop-color="rgb(198, 70, 79)" data-uid="o_f280f8d24_53"></stop><stop offset="0.9" stop-color="rgb(48, 47, 78)" data-uid="o_f280f8d24_54"></stop></linearGradient><linearGradient id="o_f280f8d24_9" x1="32" y1="92.58" x2="32" y2="27.31" gradientUnits="userSpaceOnUse" data-uid="o_f280f8d24_55"><stop offset="0" stop-color="rgb(250, 217, 148)" data-uid="o_f280f8d24_56"></stop><stop offset="0.35" stop-color="rgb(238, 137, 104)" data-uid="o_f280f8d24_57"></stop><stop offset="0.62" stop-color="rgb(198, 70, 79)" data-uid="o_f280f8d24_58"></stop><stop offset="0.96" stop-color="rgb(48, 47, 78)" data-uid="o_f280f8d24_59"></stop></linearGradient><linearGradient id="o_f280f8d24_10" x1="32" y1="44.3" x2="32" y2="19.71" gradientUnits="userSpaceOnUse" data-uid="o_f280f8d24_60"><stop offset="0.16" stop-color="rgb(250, 217, 148)" data-uid="o_f280f8d24_61"></stop><stop offset="0.34" stop-color="rgb(238, 137, 104)" data-uid="o_f280f8d24_62"></stop><stop offset="0.66" stop-color="rgb(198, 70, 79)" data-uid="o_f280f8d24_63"></stop><stop offset="1" stop-color="rgb(48, 47, 78)" data-uid="o_f280f8d24_64"></stop></linearGradient><linearGradient id="o_f280f8d24_11" x1="32" y1="66.83" x2="32" y2="41.59" gradientUnits="userSpaceOnUse" data-uid="o_f280f8d24_65"><stop offset="0" stop-color="rgb(250, 217, 148)" data-uid="o_f280f8d24_66"></stop><stop offset="0.13" stop-color="rgb(238, 137, 104)" data-uid="o_f280f8d24_67"></stop><stop offset="0.41" stop-color="rgb(198, 70, 79)" data-uid="o_f280f8d24_68"></stop><stop offset="1" stop-color="rgb(48, 47, 78)" data-uid="o_f280f8d24_69"></stop></linearGradient><linearGradient id="o_f280f8d24_12" x1="32" y1="35.33" x2="32" y2="-14.79" gradientUnits="userSpaceOnUse" data-uid="o_f280f8d24_70"><stop offset="0.16" stop-color="rgb(250, 217, 148)" data-uid="o_f280f8d24_71"></stop><stop offset="0.4" stop-color="rgb(238, 137, 104)" data-uid="o_f280f8d24_72"></stop><stop offset="0.66" stop-color="rgb(198, 70, 79)" data-uid="o_f280f8d24_73"></stop><stop offset="1" stop-color="rgb(48, 47, 78)" data-uid="o_f280f8d24_74"></stop></linearGradient><linearGradient id="o_f280f8d24_13" x1="32" y1="28.21" x2="32" y2="-2.08" href="#linear-gradient-11" data-uid="o_f280f8d24_75"></linearGradient><linearGradient id="o_f280f8d24_14" x1="24.22" y1="29.39" x2="23.63" y2="39.96" gradientUnits="userSpaceOnUse" data-uid="o_f280f8d24_76"><stop offset="0" stop-color="rgb(250, 217, 148)" data-uid="o_f280f8d24_77"></stop><stop offset="0.33" stop-color="rgb(238, 137, 104)" data-uid="o_f280f8d24_78"></stop><stop offset="0.67" stop-color="rgb(198, 70, 79)" data-uid="o_f280f8d24_79"></stop><stop offset="1" stop-color="rgb(48, 47, 78)" data-uid="o_f280f8d24_80"></stop></linearGradient><linearGradient id="o_f280f8d24_15" x1="41.27" y1="26.92" x2="40.69" y2="37.5" href="#linear-gradient-13" data-uid="o_f280f8d24_81"></linearGradient><linearGradient id="o_f280f8d24_16" x1="16.16" y1="26.71" x2="15.48" y2="38.97" href="#linear-gradient-13" data-uid="o_f280f8d24_82"></linearGradient><linearGradient id="o_f280f8d24_17" x1="50.29" y1="26.26" x2="49.62" y2="38.52" href="#linear-gradient-13" data-uid="o_f280f8d24_83"></linearGradient><linearGradient id="o_f280f8d24_18" x1="21.57" y1="21.7" x2="21.23" y2="27.83" href="#linear-gradient-13" data-uid="o_f280f8d24_84"></linearGradient><linearGradient id="o_f280f8d24_19" x1="43.33" y1="20.19" x2="43" y2="26.32" href="#linear-gradient-13" data-uid="o_f280f8d24_85"></linearGradient><linearGradient id="o_f280f8d24_20" x1="45.85" y1="27.79" x2="45.51" y2="33.92" href="#linear-gradient-13" data-uid="o_f280f8d24_86"></linearGradient></defs><path transform="matrix(2.23426398533263, 0, 0, 2.23426398533263, 144.28680217844573, 74.1896383031422)" data-type="circle" data-cx="50" data-cy="50" data-r="50" d="M50 50m-50 0a50 50 0 1 0 100 0a50 50 0 1 0 -100 0" fill="#EE8968" data-uid="o_f280f8d24_87"></path><path transform="matrix(2.165038676588962, 0, 0, 2.165038676588962, 147.74807697204426, 77.65090561160862)" fill="#302F4E" data-type="circle" data-cx="50" data-cy="50" data-r="50" d="M50 50m-50 0a50 50 0 1 0 100 0a50 50 0 1 0 -100 0" data-uid="o_f280f8d24_88"></path><g transform="matrix(3.796086858390706, 0, 0, 3.796086858390706, 134.5252168305463, 64.42809038090337)" data-uid="o_f280f8d24_89"><path class="cls-1" fill="url(&quot;#o_f280f8d24_3&quot;)" transform="matrix(1, 0, 0, 1, 0, 0)" data-type="circle" data-cx="32" data-cy="32" data-r="27.4" d="M32 32m-27.4 0a27.4 27.4 0 1 0 54.8 0a27.4 27.4 0 1 0 -54.8 0" data-uid="o_f280f8d24_90"></path><path class="cls-2" d="M55.79 18.42l-3.09 1.44a5.93 5.93 0 0 1-5.11.08 4.88 4.88 0 0 0-4.23-.06L39 21.9a6.66 6.66 0 0 1-5.62 0 4.1 4.1 0 0 0-3.45 0l-1.58.74a7.61 7.61 0 0 1-6.42 0l-4.34-2a4 4 0 0 0-3.35 0l-3.47 1.61a2.89 2.89 0 0 1-2.44 0l-1.63-.78a27.24 27.24 0 0 0-2 8.4l3.65 1.7a2.89 2.89 0 0 0 2.44 0L14.25 30a4 4 0 0 1 3.35 0l4.34 2a7.61 7.61 0 0 0 6.42 0l1.58-.74a4.1 4.1 0 0 1 3.45 0l1.94.9a2.06 2.06 0 0 0 1.74 0l6.27-2.91a4.7 4.7 0 0 1 4-.06 6.17 6.17 0 0 0 5.31.05l4-1.85a21.73 21.73 0 0 1 2.2-.88 27.2 27.2 0 0 0-3.06-8.09z" fill="url(&quot;#o_f280f8d24_4&quot;)" transform="matrix(1, 0, 0, 1, 0, 0)" data-uid="o_f280f8d24_91"></path><path class="cls-3" d="M55.84 18.5a27.51 27.51 0 0 0-6-7.3 6.15 6.15 0 0 1-2.41-.59 5 5 0 0 0-4.21.09l-4.2 2a6.66 6.66 0 0 1-5.62 0 4.1 4.1 0 0 0-3.45 0l-1.58.73a7.61 7.61 0 0 1-6.42 0l-4.34-2a4 4 0 0 0-3.35 0l-.61.28a27.45 27.45 0 0 0-7 9.89l1.67.78a2.89 2.89 0 0 0 2.44 0l3.47-1.61a4 4 0 0 1 3.35 0l4.34 2a7.61 7.61 0 0 0 6.42 0l1.59-.77a4.1 4.1 0 0 1 3.45 0A6.66 6.66 0 0 0 39 22l4.33-2a4.7 4.7 0 0 1 4-.06 6.17 6.17 0 0 0 5.31.05z" fill="url(&quot;#o_f280f8d24_5&quot;)" transform="matrix(1, 0, 0, 1, 0, 0)" data-uid="o_f280f8d24_92"></path><path class="cls-4" d="M32 4.6a27.3 27.3 0 0 0-18.57 7.26l.82-.38a4 4 0 0 1 3.35 0l4.34 2a7.61 7.61 0 0 0 6.42 0l1.58-.74a4.1 4.1 0 0 1 3.45 0 6.66 6.66 0 0 0 5.62 0l4.35-2a4.86 4.86 0 0 1 4.1 0 6.16 6.16 0 0 0 2.49.57A27.28 27.28 0 0 0 32 4.6z" fill="url(&quot;#o_f280f8d24_6&quot;)" transform="matrix(1, 0, 0, 1, 0, 0)" data-uid="o_f280f8d24_93"></path><path class="cls-5" d="M32 4.6a27.27 27.27 0 0 0-16.25 5.34 16.71 16.71 0 0 0 32.49 0A27.27 27.27 0 0 0 32 4.6z" fill="url(&quot;#o_f280f8d24_7&quot;)" transform="matrix(1, 0, 0, 1, 0, 0)" data-uid="o_f280f8d24_94"></path><path class="cls-6" d="M48 10.85a5.94 5.94 0 0 1-.57-.24 5 5 0 0 0-4.21.09l-4.2 2a6.66 6.66 0 0 1-5.62 0 4.1 4.1 0 0 0-3.45 0l-1.58.73a7.61 7.61 0 0 1-6.42 0l-4.34-2a4 4 0 0 0-1.54-.43 16.73 16.73 0 0 0 12.87 11.46l1-.46a4.1 4.1 0 0 1 3.45 0 6.65 6.65 0 0 0 1.54.49A16.73 16.73 0 0 0 48 10.85z" fill="url(&quot;#o_f280f8d24_8&quot;)" transform="matrix(1, 0, 0, 1, 0, 0)" data-uid="o_f280f8d24_95"></path><path class="cls-7" d="M5.56 39.17a27.4 27.4 0 0 0 52.89 0z" fill="url(&quot;#o_f280f8d24_9&quot;)" transform="matrix(1, 0, 0, 1, 0, 0)" data-uid="o_f280f8d24_96"></path><path class="cls-8" d="M48.29 35.18l-.67-.11a4.86 4.86 0 0 1-1.33-.42l-3.82-1.85a8.76 8.76 0 0 0-4.63-.8l-4.7.44q-.85.08-1.71.08h-7.55a7.8 7.8 0 0 0-3 .61l-2.53 1.07a4.1 4.1 0 0 1-.6.2l-2.56.6a1.5 1.5 0 0 0-.91.67l-2.15 3.48h39.74l-1.23-2.29a3.27 3.27 0 0 0-2.35-1.68z" fill="url(&quot;#o_f280f8d24_10&quot;)" transform="matrix(1, 0, 0, 1, 0, 0)" data-uid="o_f280f8d24_97"></path><path class="cls-9" d="M32 59.4a25.61 25.61 0 0 0 6.12-.75l-5.65-5.05h-.94l-5.65 5.06a25.61 25.61 0 0 0 6.12.74z" fill="url(&quot;#o_f280f8d24_11&quot;)" transform="matrix(1, 0, 0, 1, 0, 0)" data-uid="o_f280f8d24_98"></path><path class="cls-11" fill="url(&quot;#o_f280f8d24_12&quot;)" transform="matrix(1, 0, 0, 1, 0, 0)" data-type="circle" data-cx="32" data-cy="22.11" data-r="4.78" d="M32 22.11m-4.78 0a4.78 4.78 0 1 0 9.56 0a4.78 4.78 0 1 0 -9.56 0" data-uid="o_f280f8d24_99"></path><path class="cls-12" d="M32 17.33a4.77 4.77 0 0 0-4.67 5.78 7.58 7.58 0 0 0 1-.38l1.6-.73a4.1 4.1 0 0 1 3.45 0 6.66 6.66 0 0 0 3.35.59 4.69 4.69 0 0 0 0-.47A4.78 4.78 0 0 0 32 17.33z" fill="url(&quot;#o_f280f8d24_13&quot;)" transform="matrix(1, 0, 0, 1, 0, 0)" data-uid="o_f280f8d24_100"></path><path class="cls-13" d="M24.69 27.75a.4.4 0 0 0-.3.48.4.4 0 0 0-.48-.3.4.4 0 0 0 .3-.48.4.4 0 0 0 .48.3z" fill="url(&quot;#o_f280f8d24_14&quot;)" transform="matrix(1, 0, 0, 1, 0, 0)" data-uid="o_f280f8d24_101"></path><path class="cls-14" d="M41.75 25.29a.4.4 0 0 0-.3.48.4.4 0 0 0-.48-.3.4.4 0 0 0 .3-.48.4.4 0 0 0 .48.3z" fill="url(&quot;#o_f280f8d24_15&quot;)" transform="matrix(1, 0, 0, 1, 0, 0)" data-uid="o_f280f8d24_102"></path><path class="cls-15" d="M16.71 24.82a.46.46 0 0 0-.35.56.46.46 0 0 0-.56-.38.46.46 0 0 0 .35-.56.46.46 0 0 0 .56.38z" fill="url(&quot;#o_f280f8d24_16&quot;)" transform="matrix(1, 0, 0, 1, 0, 0)" data-uid="o_f280f8d24_103"></path><path class="cls-16" d="M50.85 24.37a.46.46 0 0 0-.35.56.46.46 0 0 0-.56-.35.46.46 0 0 0 .35-.56.46.46 0 0 0 .56.35z" fill="url(&quot;#o_f280f8d24_17&quot;)" transform="matrix(1, 0, 0, 1, 0, 0)" data-uid="o_f280f8d24_104"></path><path class="cls-17" d="M21.84 20.76a.23.23 0 0 0-.17.28.23.23 0 0 0-.28-.17.23.23 0 0 0 .17-.28.23.23 0 0 0 .28.17z" fill="url(&quot;#o_f280f8d24_18&quot;)" transform="matrix(1, 0, 0, 1, 0, 0)" data-uid="o_f280f8d24_105"></path><path class="cls-18" d="M43.61 19.25a.23.23 0 0 0-.17.28.23.23 0 0 0-.28-.17.23.23 0 0 0 .17-.28.23.23 0 0 0 .28.17z" fill="url(&quot;#o_f280f8d24_19&quot;)" transform="matrix(1, 0, 0, 1, 0, 0)" data-uid="o_f280f8d24_106"></path><path class="cls-19" d="M46.13 26.84a.23.23 0 0 1-.45.1.23.23 0 1 1 .45-.1z" fill="url(&quot;#o_f280f8d24_20&quot;)" transform="matrix(1, 0, 0, 1, 0, 0)" data-uid="o_f280f8d24_107"></path></g><path text="CRR" fill="#EE8968" space="preserve" text-anchor="middle" offset="0.5" font-scale="contain" font-size="48" font-family="Orbitron" transform="matrix(1.5069950989864989, 0, 0, 1.5069950989864989, 255.6367952333299, 375.0067498950344)" data-fl-textpath="" font-weight="400" font-style="normal" data-uid="o_f280f8d24_108" d="M-22.178000000000004-34.56L-22.178000000000004-30.67L-50.878-30.67Q-51.648-30.67 -52.198-30.12Q-52.748000000000005-29.57 -52.748000000000005-28.8L-52.748000000000005-28.8L-52.748000000000005-5.76Q-52.748000000000005-4.99 -52.198-4.44Q-51.648-3.89 -50.878-3.89L-50.878-3.89L-22.178000000000004-3.89L-22.178000000000004 0L-50.878 0Q-53.278000000000006 0 -54.958000000000006-1.68Q-56.638000000000005-3.36 -56.638000000000005-5.76L-56.638000000000005-5.76L-56.638000000000005-28.8Q-56.638000000000005-31.2 -54.958000000000006-32.88Q-53.278000000000006-34.56 -50.878-34.56L-50.878-34.56L-22.178000000000004-34.56ZM 17.328000000000003-28.75L 17.328000000000003-28.75L 17.328000000000003-18.62Q 17.328000000000003-16.22  15.648000000000003-14.54Q 13.968000000000004-12.86  11.568000000000001-12.86L 11.568000000000001-12.86L 6.288-12.86L 17.137999999999998 0L 11.998000000000001 0L 1.1980000000000004-12.86L-11.472-12.86Q-11.902000000000001-12.86 -13.341999999999999-13.06L-13.341999999999999-13.06L-13.341999999999999 0L-17.232 0L-17.232-34.51L 11.568000000000001-34.51Q 13.968000000000004-34.51  15.648000000000003-32.83Q 17.328000000000003-31.15  17.328000000000003-28.75ZM-11.472-16.8L-11.472-16.8L 11.568000000000001-16.8Q 12.338000000000001-16.8  12.868000000000002-17.33Q 13.387999999999998-17.86  13.387999999999998-18.62L 13.387999999999998-18.62L 13.387999999999998-28.75Q 13.387999999999998-29.52  12.868000000000002-30.07Q 12.338000000000001-30.62  11.568000000000001-30.62L 11.568000000000001-30.62L-11.472-30.62Q-12.242-30.62 -12.792-30.07Q-13.341999999999999-29.52 -13.341999999999999-28.75L-13.341999999999999-28.75L-13.341999999999999-18.62Q-13.341999999999999-17.86 -12.792-17.33Q-12.242-16.8 -11.472-16.8ZM 56.92800000000001-28.75L 56.92800000000001-28.75L 56.92800000000001-18.62Q 56.92800000000001-16.22  55.248000000000005-14.54Q 53.56800000000001-12.86  51.168000000000006-12.86L 51.168000000000006-12.86L 45.888000000000005-12.86L 56.738 0L 51.598000000000006 0L 40.798-12.86L 28.128000000000007-12.86Q 27.698000000000004-12.86  26.258000000000006-13.06L 26.258000000000006-13.06L 26.258000000000006 0L 22.368000000000006 0L 22.368000000000006-34.51L 51.168000000000006-34.51Q 53.56800000000001-34.51  55.248000000000005-32.83Q 56.92800000000001-31.15  56.92800000000001-28.75ZM 28.128000000000007-16.8L 28.128000000000007-16.8L 51.168000000000006-16.8Q 51.938-16.8  52.468-17.33Q 52.988-17.86  52.988-18.62L 52.988-18.62L 52.988-28.75Q 52.988-29.52  52.468-30.07Q 51.938-30.62  51.168000000000006-30.62L 51.168000000000006-30.62L 28.128000000000007-30.62Q 27.358000000000004-30.62  26.808000000000007-30.07Q 26.258000000000006-29.52  26.258000000000006-28.75L 26.258000000000006-28.75L 26.258000000000006-18.62Q 26.258000000000006-17.86  26.808000000000007-17.33Q 27.358000000000004-16.8  28.128000000000007-16.8Z"></path></svg>