<svg xmlns:xlink="http://www.w3.org/1999/xlink" xmlns="http://www.w3.org/2000/svg" viewBox="170.28360685936786 322.92499228470524 171.14340632260155 52.081752100060385" width="171.14340632260155"  height="52.081752100060385" ><path xmlns="http://www.w3.org/2000/svg" text="CRR" fill="#EE8968" space="preserve" text-anchor="middle" offset="0.5" font-scale="contain" font-size="48" font-family="Orbitron" transform="matrix(1.5069950989864989, 0, 0, 1.5069950989864989, 255.6367952333299, 375.0067498950344)" data-fl-textpath="" font-weight="400" font-style="normal" d="M-22.178000000000004-34.56L-22.178000000000004-30.67L-50.878-30.67Q-51.648-30.67 -52.198-30.12Q-52.748000000000005-29.57 -52.748000000000005-28.8L-52.748000000000005-28.8L-52.748000000000005-5.76Q-52.748000000000005-4.99 -52.198-4.44Q-51.648-3.89 -50.878-3.89L-50.878-3.89L-22.178000000000004-3.89L-22.178000000000004 0L-50.878 0Q-53.278000000000006 0 -54.958000000000006-1.68Q-56.638000000000005-3.36 -56.638000000000005-5.76L-56.638000000000005-5.76L-56.638000000000005-28.8Q-56.638000000000005-31.2 -54.958000000000006-32.88Q-53.278000000000006-34.56 -50.878-34.56L-50.878-34.56L-22.178000000000004-34.56ZM 17.328000000000003-28.75L 17.328000000000003-28.75L 17.328000000000003-18.62Q 17.328000000000003-16.22  15.648000000000003-14.54Q 13.968000000000004-12.86  11.568000000000001-12.86L 11.568000000000001-12.86L 6.288-12.86L 17.137999999999998 0L 11.998000000000001 0L 1.1980000000000004-12.86L-11.472-12.86Q-11.902000000000001-12.86 -13.341999999999999-13.06L-13.341999999999999-13.06L-13.341999999999999 0L-17.232 0L-17.232-34.51L 11.568000000000001-34.51Q 13.968000000000004-34.51  15.648000000000003-32.83Q 17.328000000000003-31.15  17.328000000000003-28.75ZM-11.472-16.8L-11.472-16.8L 11.568000000000001-16.8Q 12.338000000000001-16.8  12.868000000000002-17.33Q 13.387999999999998-17.86  13.387999999999998-18.62L 13.387999999999998-18.62L 13.387999999999998-28.75Q 13.387999999999998-29.52  12.868000000000002-30.07Q 12.338000000000001-30.62  11.568000000000001-30.62L 11.568000000000001-30.62L-11.472-30.62Q-12.242-30.62 -12.792-30.07Q-13.341999999999999-29.52 -13.341999999999999-28.75L-13.341999999999999-28.75L-13.341999999999999-18.62Q-13.341999999999999-17.86 -12.792-17.33Q-12.242-16.8 -11.472-16.8ZM 56.92800000000001-28.75L 56.92800000000001-28.75L 56.92800000000001-18.62Q 56.92800000000001-16.22  55.248000000000005-14.54Q 53.56800000000001-12.86  51.168000000000006-12.86L 51.168000000000006-12.86L 45.888000000000005-12.86L 56.738 0L 51.598000000000006 0L 40.798-12.86L 28.128000000000007-12.86Q 27.698000000000004-12.86  26.258000000000006-13.06L 26.258000000000006-13.06L 26.258000000000006 0L 22.368000000000006 0L 22.368000000000006-34.51L 51.168000000000006-34.51Q 53.56800000000001-34.51  55.248000000000005-32.83Q 56.92800000000001-31.15  56.92800000000001-28.75ZM 28.128000000000007-16.8L 28.128000000000007-16.8L 51.168000000000006-16.8Q 51.938-16.8  52.468-17.33Q 52.988-17.86  52.988-18.62L 52.988-18.62L 52.988-28.75Q 52.988-29.52  52.468-30.07Q 51.938-30.62  51.168000000000006-30.62L 51.168000000000006-30.62L 28.128000000000007-30.62Q 27.358000000000004-30.62  26.808000000000007-30.07Q 26.258000000000006-29.52  26.258000000000006-28.75L 26.258000000000006-28.75L 26.258000000000006-18.62Q 26.258000000000006-17.86  26.808000000000007-17.33Q 27.358000000000004-16.8  28.128000000000007-16.8Z"></path></svg>